<svg xmlns="http://www.w3.org/2000/svg" width="57" height="57" viewBox="0 0 57 57">
  <g id="Group_6" data-name="Group 6" transform="translate(-1425 -681)">
    <circle id="Ellipse_4" data-name="Ellipse 4" cx="28.5" cy="28.5" r="28.5" transform="translate(1425 681)" fill="#0e5bb2"/>
    <path id="Icon_awesome-linkedin-in" data-name="Icon awesome-linkedin-in" d="M7.051,31.5H.52V10.47H7.051ZM3.782,7.6A3.8,3.8,0,1,1,7.564,3.783,3.814,3.814,0,0,1,3.782,7.6ZM31.493,31.5H24.976V21.263c0-2.44-.049-5.569-3.4-5.569-3.4,0-3.916,2.651-3.916,5.393V31.5H11.142V10.47h6.263v2.869H17.5a6.862,6.862,0,0,1,6.179-3.4c6.609,0,7.824,4.352,7.824,10.005V31.5Z" transform="translate(1438 693.999)" fill="#fff"/>
  </g>
</svg>
