<svg width="30" height="30" viewBox="0 0 30 30" fill="none" xmlns="http://www.w3.org/2000/svg">
<path fill-rule="evenodd" clip-rule="evenodd" d="M4.08 0.531006H3.96667C3.4476 0.531006 3.00107 0.531006 2.60667 0.623939C1.99611 0.769833 1.43786 1.08191 0.993776 1.5256C0.549692 1.96928 0.237111 2.52725 0.0906666 3.13767C-8.44399e-08 3.53207 0 3.97634 0 4.49767V10.1643C0 10.6834 1.6888e-08 11.1299 0.0929334 11.5243C0.238827 12.1349 0.550905 12.6931 0.994589 13.1372C1.43827 13.5813 1.99624 13.8939 2.60667 14.0403C3.00107 14.131 3.44533 14.131 3.96667 14.131H9.63333C10.1524 14.131 10.5989 14.131 10.9933 14.0381C11.6039 13.8922 12.1621 13.5801 12.6062 13.1364C13.0503 12.6927 13.3629 12.1348 13.5093 11.5243C13.6 11.1299 13.6 10.6857 13.6 10.1643V4.49767C13.6 3.97861 13.6 3.53207 13.5071 3.13767C13.3612 2.52711 13.0491 1.96887 12.6054 1.52478C12.1617 1.0807 11.6038 0.768116 10.9933 0.621672C10.5989 0.531006 10.1547 0.531006 9.63333 0.531006H4.08ZM3.1348 2.82941C3.23227 2.80674 3.38413 2.79767 4.08 2.79767H9.52C10.2181 2.79767 10.3677 2.80447 10.4652 2.82941C10.6688 2.8781 10.855 2.98224 11.003 3.13027C11.151 3.27831 11.2552 3.46446 11.3039 3.66807C11.3265 3.76327 11.3333 3.91287 11.3333 4.61101V10.051C11.3333 10.7491 11.3265 10.8987 11.3016 10.9962C11.2529 11.1998 11.1488 11.386 11.0007 11.534C10.8527 11.682 10.6665 11.7862 10.4629 11.8349C10.37 11.8553 10.2204 11.8643 9.52 11.8643H4.08C3.38187 11.8643 3.23227 11.8575 3.1348 11.8326C2.93119 11.7839 2.74504 11.6798 2.597 11.5317C2.44896 11.3837 2.34482 11.1976 2.29613 10.9939C2.27573 10.901 2.26667 10.7514 2.26667 10.051V4.61101C2.26667 3.91287 2.27347 3.76327 2.2984 3.66581C2.34709 3.46219 2.45123 3.27604 2.59927 3.12801C2.7473 2.97997 2.93345 2.87583 3.13707 2.82714L3.1348 2.82941ZM19.9467 0.531006H19.8333C19.3143 0.531006 18.8677 0.531006 18.4733 0.623939C17.8628 0.769833 17.3045 1.08191 16.8604 1.5256C16.4164 1.96928 16.1038 2.52725 15.9573 3.13767C15.8667 3.53207 15.8667 3.97634 15.8667 4.49767V10.1643C15.8667 10.6834 15.8667 11.1299 15.9596 11.5243C16.1055 12.1349 16.4176 12.6931 16.8613 13.1372C17.3049 13.5813 17.8629 13.8939 18.4733 14.0403C18.8677 14.131 19.312 14.131 19.8333 14.131H25.5C26.0191 14.131 26.4656 14.131 26.86 14.0381C27.4706 13.8922 28.0288 13.5801 28.4729 13.1364C28.917 12.6927 29.2296 12.1348 29.376 11.5243C29.4667 11.1299 29.4667 10.6857 29.4667 10.1643V4.49767C29.4667 3.97861 29.4667 3.53207 29.3737 3.13767C29.2278 2.52711 28.9158 1.96887 28.4721 1.52478C28.0284 1.0807 27.4704 0.768116 26.86 0.621672C26.4656 0.531006 26.0213 0.531006 25.5 0.531006H19.9467ZM19.0015 2.82941C19.0989 2.80674 19.2508 2.79767 19.9467 2.79767H25.3867C26.0848 2.79767 26.2344 2.80447 26.3319 2.82941C26.5355 2.8781 26.7216 2.98224 26.8697 3.13027C27.0177 3.27831 27.1218 3.46446 27.1705 3.66807C27.1932 3.76327 27.2 3.91287 27.2 4.61101V10.051C27.2 10.7491 27.1909 10.8987 27.1683 10.9962C27.1196 11.1998 27.0154 11.386 26.8674 11.534C26.7194 11.682 26.5332 11.7862 26.3296 11.8349C26.2344 11.8575 26.0848 11.8643 25.3867 11.8643H19.9467C19.2485 11.8643 19.0989 11.8575 19.0015 11.8326C18.7979 11.7839 18.6117 11.6798 18.4637 11.5317C18.3156 11.3837 18.2115 11.1976 18.1628 10.9939C18.1424 10.901 18.1333 10.7514 18.1333 10.051V4.61101C18.1333 3.91287 18.1401 3.76327 18.1651 3.66581C18.2138 3.46219 18.3179 3.27604 18.4659 3.12801C18.614 2.97997 18.8001 2.87583 19.0037 2.82714L19.0015 2.82941ZM3.96667 16.3977H9.63333C10.1524 16.3977 10.5989 16.3977 10.9933 16.4906C11.6039 16.6365 12.1621 16.9486 12.6062 17.3923C13.0503 17.8359 13.3629 18.3939 13.5093 19.0043C13.6 19.3987 13.6 19.843 13.6 20.3643V26.031C13.6 26.5501 13.6 26.9966 13.5071 27.391C13.3612 28.0016 13.0491 28.5598 12.6054 29.0039C12.1617 29.448 11.6038 29.7606 10.9933 29.907C10.5989 29.9977 10.1547 29.9977 9.63333 29.9977H3.96667C3.4476 29.9977 3.00107 29.9977 2.60667 29.9047C1.99611 29.7588 1.43786 29.4468 0.993776 29.0031C0.549692 28.5594 0.237111 28.0014 0.0906666 27.391C-8.44399e-08 26.9966 0 26.5523 0 26.031V20.3643C0 19.8453 1.6888e-08 19.3987 0.0929334 19.0043C0.238827 18.3938 0.550905 17.8355 0.994589 17.3915C1.43827 16.9474 1.99624 16.6348 2.60667 16.4883C3.00107 16.3977 3.44533 16.3977 3.96667 16.3977ZM4.08 18.6643C3.38187 18.6643 3.23227 18.6711 3.1348 18.6961C2.93119 18.7448 2.74504 18.8489 2.597 18.9969C2.44896 19.145 2.34482 19.3311 2.29613 19.5347C2.27573 19.6277 2.26667 19.7773 2.26667 20.4777V25.9177C2.26667 26.6158 2.27347 26.7654 2.2984 26.8629C2.34709 27.0665 2.45123 27.2526 2.59927 27.4007C2.7473 27.5487 2.93345 27.6529 3.13707 27.7015C3.23227 27.7242 3.38187 27.731 4.08 27.731H9.52C10.2181 27.731 10.3677 27.7219 10.4652 27.6993C10.6688 27.6506 10.855 27.5464 11.003 27.3984C11.151 27.2504 11.2552 27.0642 11.3039 26.8606C11.3265 26.7654 11.3333 26.6158 11.3333 25.9177V20.4777C11.3333 19.7795 11.3265 19.6299 11.3016 19.5325C11.2529 19.3289 11.1488 19.1427 11.0007 18.9947C10.8527 18.8466 10.6665 18.7425 10.4629 18.6938C10.37 18.6734 10.2204 18.6643 9.52 18.6643H4.08ZM19.9467 16.3977H19.8333C19.3143 16.3977 18.8677 16.3977 18.4733 16.4906C17.8628 16.6365 17.3045 16.9486 16.8604 17.3923C16.4164 17.8359 16.1038 18.3939 15.9573 19.0043C15.8667 19.3987 15.8667 19.843 15.8667 20.3643V26.031C15.8667 26.5501 15.8667 26.9966 15.9596 27.391C16.1055 28.0016 16.4176 28.5598 16.8613 29.0039C17.3049 29.448 17.8629 29.7606 18.4733 29.907C18.8677 29.9999 19.3143 29.9999 19.8333 29.9999H25.5C26.0191 29.9999 26.4656 29.9999 26.86 29.907C27.4701 29.7607 28.0279 29.4485 28.4716 29.0048C28.9152 28.5612 29.2275 28.0034 29.3737 27.3933C29.4667 26.9989 29.4667 26.5523 29.4667 26.0333V20.3643C29.4667 19.8453 29.4667 19.3987 29.3737 19.0043C29.2278 18.3938 28.9158 17.8355 28.4721 17.3915C28.0284 16.9474 27.4704 16.6348 26.86 16.4883C26.4656 16.3977 26.0213 16.3977 25.5 16.3977H19.9467ZM19.0015 18.6961C19.0989 18.6734 19.2508 18.6643 19.9467 18.6643H25.3867C26.0848 18.6643 26.2344 18.6711 26.3319 18.6961C26.5355 18.7448 26.7216 18.8489 26.8697 18.9969C27.0177 19.145 27.1218 19.3311 27.1705 19.5347C27.1932 19.6299 27.2 19.7795 27.2 20.4777V25.9177C27.2 26.6158 27.1909 26.7654 27.1683 26.8629C27.1196 27.0665 27.0154 27.2526 26.8674 27.4007C26.7194 27.5487 26.5332 27.6529 26.3296 27.7015C26.2344 27.7242 26.0848 27.731 25.3867 27.731H19.9467C19.2485 27.731 19.0989 27.7219 19.0015 27.6993C18.7979 27.6506 18.6117 27.5464 18.4637 27.3984C18.3156 27.2504 18.2115 27.0642 18.1628 26.8606C18.1424 26.7677 18.1333 26.6181 18.1333 25.9177V20.4777C18.1333 19.7795 18.1401 19.6299 18.1651 19.5325C18.2138 19.3289 18.3179 19.1427 18.4659 18.9947C18.614 18.8466 18.8001 18.7425 19.0037 18.6938L19.0015 18.6961Z" fill="black"/>
</svg>
